<svg width="103" height="75" viewBox="0 0 103 75" fill="none" xmlns="http://www.w3.org/2000/svg">
<path d="M49.7326 0.273004V8.41686L43.4046 8.79601C43.9744 9.82923 44.3691 10.6053 44.8126 11.3369C50.5286 20.6825 49.5153 32.4649 42.3027 40.4069C35.09 48.349 23.5716 50.6926 13.971 46.1473C4.37042 41.602 -1.30566 31.2232 0.257477 21.0528C1.9603 9.90905 10.0532 1.31953 21.1481 0.432644C30.5514 -0.321212 40.0633 0.273004 49.7326 0.273004ZM24.5205 8.80266C16.135 8.5122 9.04876 15.1993 8.68736 23.7534C8.3326 32.0901 15.1483 39.4402 23.5139 39.7373C32.2897 40.05 39.4979 33.5291 39.8548 24.9463C40.2207 16.1771 33.5047 9.11972 24.5205 8.80266Z" fill="#ffff"/>
<path d="M78.1242 48.4021C71.7057 48.3786 65.5594 45.8063 61.0375 41.2511C56.5155 36.6959 53.9884 30.5309 54.0119 24.1124C54.0354 17.694 56.6077 11.5477 61.1629 7.02575C65.7181 2.50382 71.8831 -0.023359 78.3016 0.000162737C91.5517 0.000162737 102.613 11.1262 102.483 24.3253C102.471 27.5075 101.83 30.656 100.599 33.5902C99.3669 36.5243 97.5678 39.1863 95.3045 41.4234C93.0413 43.6604 90.3586 45.4285 87.4103 46.6261C84.4621 47.8237 81.3063 48.4273 78.1242 48.4021ZM78.2905 39.755C80.3405 39.7486 82.3691 39.3374 84.2598 38.5451C86.1505 37.7527 87.8662 36.5947 89.3082 35.1376C90.7503 33.6805 91.8904 31.953 92.6631 30.0541C93.4358 28.1553 93.8259 26.1225 93.811 24.0725C93.7334 15.5518 86.5075 8.55199 77.9424 8.71606C75.9042 8.73892 73.8904 9.163 72.0162 9.9641C70.1419 10.7652 68.4437 11.9276 67.0186 13.385C64.1406 16.3283 62.5497 20.2944 62.5959 24.4107C62.642 28.527 64.3215 32.4564 67.2648 35.3344C70.2081 38.2124 74.1742 39.8033 78.2905 39.7572V39.755Z" fill="#ffff"/>
<path d="M40.4224 50.8213C40.4242 54.9535 38.7844 58.9171 35.8637 61.8403C34.4176 63.2877 32.7005 64.436 30.8105 65.2198C28.9206 66.0036 26.8947 66.4075 24.8487 66.4084C20.7165 66.4101 16.7528 64.7703 13.8297 61.8497C10.9066 58.929 9.26336 54.9668 9.26159 50.8346V50.8213H0.641031C0.622583 53.9946 1.2326 57.1401 2.43588 60.0764C3.63917 63.0127 5.41192 65.6818 7.65188 67.9296C9.89184 70.1774 12.5547 71.9594 15.4868 73.173C18.4189 74.3865 21.5623 75.0075 24.7356 75.0001C38.2074 75.0201 48.9565 64.3907 49.094 50.9211V50.8213H40.4224Z" fill="#ffff"/>
</svg>
